<svg width="25" height="22" viewBox="0 0 25 22" fill="none" xmlns="http://www.w3.org/2000/svg">
<path d="M24.6558 11.8348C25.1147 11.3732 25.1147 10.6268 24.6558 10.1701L17.6252 3.09375C17.2884 2.75491 16.7855 2.6567 16.3461 2.83839C15.9066 3.02009 15.6235 3.45223 15.6235 3.92857V7.85714H10.1553C8.86144 7.85714 7.81174 8.91295 7.81174 10.2143V11.7857C7.81174 13.0871 8.86144 14.1429 10.1553 14.1429H15.6235V18.0714C15.6235 18.5478 15.9066 18.9799 16.3461 19.1616C16.7855 19.3433 17.2884 19.2451 17.6252 18.9062L24.6558 11.8348ZM7.81174 3.14286C8.67591 3.14286 9.37408 2.44063 9.37408 1.57143C9.37408 0.702232 8.67591 0 7.81174 0H4.68704C2.0994 0 0 2.11161 0 4.71429V17.2857C0 19.8884 2.0994 22 4.68704 22H7.81174C8.67591 22 9.37408 21.2978 9.37408 20.4286C9.37408 19.5594 8.67591 18.8571 7.81174 18.8571H4.68704C3.82287 18.8571 3.12469 18.1549 3.12469 17.2857V4.71429C3.12469 3.84509 3.82287 3.14286 4.68704 3.14286H7.81174Z" fill="#601C1D"/>
</svg>
